<svg width="48" height="48" viewBox="0 0 48 48" fill="none" xmlns="http://www.w3.org/2000/svg">
<rect width="48" height="48" rx="24" fill="#22252A"/>
<path d="M22.303 26.3029L21.0971 25.0971C19.812 23.8119 19.1694 23.1694 19.126 22.6177C19.0883 22.139 19.2821 21.6712 19.6472 21.3594C20.068 21 20.9767 21 22.7941 21H25.2059C27.0234 21 27.9321 21 28.3529 21.3594C28.718 21.6712 28.9118 22.139 28.8741 22.6177C28.8307 23.1694 28.1881 23.8119 26.903 25.0971L25.6971 26.3029L25.6971 26.3029C25.1031 26.897 24.806 27.194 24.4636 27.3053C24.1623 27.4032 23.8378 27.4032 23.5365 27.3053C23.194 27.194 22.897 26.897 22.303 26.3029Z" fill="white"/>
</svg>
